<svg xmlns="http://www.w3.org/2000/svg" width="24" height="24" viewBox="0 0 24 24" fill="none" stroke="white" stroke-width="1" stroke-linecap="round" stroke-linejoin="round" class="feather feather-github">
    <path d="M12 2C6.48 2 2 6.48 2 12c0 4.42 2.87 8.16 6.84 9.49.5.09.66-.22.66-.49 0-.24-.01-.87-.01-1.71-2.78.61-3.37-1.34-3.37-1.34-.46-1.17-1.12-1.48-1.12-1.48-.91-.62.07-.61.07-.61 1 .07 1.53 1.03 1.53 1.03.9 1.54 2.36 1.1 2.94.84.09-.65.35-1.1.63-1.35-2.22-.25-4.56-1.11-4.56-4.95 0-1.09.39-1.98 1.02-2.68-.1-.25-.45-1.27.1-2.65 0 0 .84-.27 2.75 1.02A9.49 9.49 0 0 1 12 6.8c.85.004 1.71.115 2.52.338 1.91-1.29 2.75-1.02 2.75-1.02.55 1.38.2 2.4.1 2.65.63.7 1.02 1.59 1.02 2.68 0 3.85-2.34 4.7-4.57 4.95.36.31.68.92.68 1.85 0 1.34-.01 2.42-.01 2.75 0 .27.16.58.67.48A10.005 10.005 0 0 0 22 12c0-5.52-4.48-10-10-10z" />
  </svg>